<svg width="489" height="163" viewBox="0 0 489 163" fill="none" xmlns="http://www.w3.org/2000/svg">
<path d="M148.642 110.14H118.816V58.3526H148.642V67.3498H129.797V78.7203H147.331V87.7175H129.797V101.072H148.642V110.14ZM177.645 110.14H166.665V67.4915H152.602V58.3526H191.708V67.4915H177.645V110.14ZM240.3 110.14H229.354V87.7883H208.845V110.14H197.864V58.3526H208.845V78.6494H229.354V58.3526H240.3V110.14ZM274.936 110.14L257.543 64.3035H257.26C257.354 65.2717 257.437 66.4524 257.508 67.8457C257.579 69.239 257.638 70.7621 257.685 72.4151C257.732 74.0446 257.756 75.7094 257.756 77.4097V110.14H252.159V58.3526H261.086L277.486 101.426H277.734L294.382 58.3526H303.238V110.14H297.287V76.9846C297.287 75.4496 297.311 73.9147 297.358 72.3797C297.405 70.8211 297.464 69.357 297.535 67.9874C297.606 66.5941 297.677 65.3898 297.747 64.3743H297.464L279.859 110.14H274.936ZM346.764 71.3171V110.14H341.947L341.097 104.685H340.778C339.975 106.031 338.936 107.164 337.661 108.085C336.386 109.006 334.945 109.691 333.34 110.14C331.757 110.612 330.069 110.848 328.274 110.848C325.204 110.848 322.63 110.352 320.552 109.36C318.474 108.369 316.904 106.834 315.841 104.755C314.802 102.677 314.282 100.009 314.282 96.7501V71.3171H320.233V96.325C320.233 99.5603 320.965 101.981 322.43 103.587C323.894 105.169 326.125 105.96 329.124 105.96C332.005 105.96 334.296 105.417 335.996 104.33C337.72 103.244 338.96 101.65 339.715 99.5484C340.471 97.4231 340.849 94.8255 340.849 91.7556V71.3171H346.764ZM375.768 70.6086C380.373 70.6086 383.856 71.7421 386.218 74.0091C388.579 76.2525 389.76 79.8656 389.76 84.8483V110.14H383.951V85.2379C383.951 82.0027 383.207 79.5822 381.719 77.9764C380.255 76.3706 378 75.5677 374.953 75.5677C370.655 75.5677 367.633 76.7839 365.885 79.2162C364.138 81.6485 363.264 85.1789 363.264 89.8074V110.14H357.384V71.3171H362.131L363.016 76.9137H363.335C364.161 75.5441 365.212 74.3988 366.488 73.4778C367.763 72.5332 369.191 71.8248 370.774 71.3525C372.356 70.8566 374.021 70.6086 375.768 70.6086ZM405.941 71.3171V110.14H400.061V71.3171H405.941ZM403.071 56.794C404.04 56.794 404.866 57.1128 405.551 57.7504C406.259 58.3644 406.614 59.3326 406.614 60.655C406.614 61.9538 406.259 62.922 405.551 63.5596C404.866 64.1972 404.04 64.516 403.071 64.516C402.056 64.516 401.206 64.1972 400.521 63.5596C399.86 62.922 399.529 61.9538 399.529 60.655C399.529 59.3326 399.86 58.3644 400.521 57.7504C401.206 57.1128 402.056 56.794 403.071 56.794ZM432.146 110.848C428.651 110.848 425.569 110.128 422.901 108.687C420.232 107.247 418.154 105.051 416.666 102.099C415.179 99.147 414.435 95.4277 414.435 90.9409C414.435 86.2416 415.214 82.4042 416.773 79.4287C418.355 76.4296 420.527 74.2099 423.29 72.7694C426.053 71.3289 429.194 70.6086 432.713 70.6086C434.649 70.6086 436.515 70.8093 438.309 71.2108C440.128 71.5886 441.615 72.0727 442.772 72.6631L441.001 77.5868C439.821 77.1145 438.451 76.6894 436.892 76.3116C435.357 75.9337 433.917 75.7448 432.571 75.7448C429.879 75.7448 427.635 76.3234 425.841 77.4805C424.07 78.6376 422.735 80.3379 421.838 82.5813C420.964 84.8247 420.527 87.5876 420.527 90.87C420.527 94.0108 420.952 96.6911 421.803 98.9109C422.676 101.131 423.963 102.831 425.664 104.012C427.387 105.169 429.536 105.747 432.11 105.747C434.165 105.747 436.019 105.535 437.672 105.11C439.325 104.661 440.824 104.142 442.17 103.551V108.794C440.871 109.455 439.419 109.963 437.813 110.317C436.231 110.671 434.342 110.848 432.146 110.848ZM455.446 55.0229V71.4942C455.446 72.4388 455.423 73.3952 455.376 74.3634C455.328 75.3079 455.246 76.1817 455.128 76.9846H455.517C456.32 75.6149 457.336 74.4696 458.564 73.5486C459.815 72.6041 461.232 71.8956 462.814 71.4233C464.396 70.9274 466.073 70.6795 467.844 70.6795C470.961 70.6795 473.559 71.1754 475.637 72.1672C477.739 73.159 479.309 74.694 480.348 76.7721C481.411 78.8502 481.942 81.5422 481.942 84.8483V110.14H476.133V85.2379C476.133 82.0027 475.389 79.5822 473.901 77.9764C472.437 76.3706 470.182 75.5677 467.136 75.5677C464.255 75.5677 461.952 76.1227 460.228 77.2325C458.528 78.3188 457.3 79.9246 456.545 82.0499C455.813 84.1753 455.446 86.7729 455.446 89.8428V110.14H449.566V55.0229H455.446Z" fill="#00B1FF"/>
<g clip-path="url(#clip0_1026_142)">
<path d="M49.0301 0.134277C49.5038 0.776057 49.8578 1.49056 50.2607 2.17455C51.5596 4.37755 52.8437 6.5892 54.1318 8.79933C55.5299 11.1996 56.9267 13.6006 58.3224 16.0023C59.5676 18.1382 60.815 20.2741 62.0646 22.4099C63.4633 24.8096 64.8603 27.2104 66.2556 29.6124C67.4747 31.7056 68.694 33.7984 69.9134 35.8909C71.2109 38.1149 72.5089 40.3383 73.8074 42.5609C75.4374 45.3542 77.0687 48.1478 78.7014 50.9417C80.3395 53.7516 81.975 56.5624 83.608 59.3743C85.0923 61.9201 86.5793 64.4643 88.069 67.0071C89.699 69.802 91.326 72.599 92.9502 75.398C94.4763 78.018 96.0043 80.6368 97.5345 83.2545C97.7703 83.6613 97.7728 83.6847 97.3816 83.9318C95.2617 85.2734 93.1393 86.6125 91.0146 87.9493C89.2084 89.0885 87.4017 90.2271 85.5945 91.3652C82.2939 93.4404 78.9929 95.5147 75.6915 97.5882C72.2907 99.7261 68.8901 101.865 65.4896 104.005C61.5441 106.486 57.598 108.967 53.6515 111.448C52.2453 112.333 50.8405 113.22 49.4371 114.108C49.2945 114.199 49.163 114.309 48.996 114.356L48.9099 114.268C48.9068 114.031 48.9017 113.794 48.9017 113.556C48.9017 75.9423 48.9017 38.328 48.9017 0.713507C48.9017 0.526872 48.9063 0.340745 48.9089 0.15411L49.0301 0.134277ZM83.66 83.9664C83.742 83.9486 83.8367 83.9512 83.9035 83.9095C85.1626 83.1209 86.419 82.3282 87.6727 81.5315C87.9865 81.3312 87.9875 81.263 87.7873 80.9167C87.2224 79.9378 86.6713 78.9502 86.0861 77.9829C85.7906 77.4957 85.5808 76.9541 85.1835 76.5295C85.0016 75.994 84.6573 75.5465 84.3782 75.0644C82.9781 72.6454 81.5721 70.2297 80.1602 67.8172C78.9234 65.6948 77.6857 63.5732 76.4469 61.4522C75.0482 59.0519 73.6507 56.6509 72.2544 54.2493C70.7779 51.7177 69.2996 49.1872 67.8194 46.6577C66.0458 43.6136 64.2746 40.5676 62.5057 37.5197C60.7247 34.4604 58.9395 31.403 57.1503 28.3477C56.86 27.8539 56.618 27.3306 56.2488 26.8826C56.2401 26.8317 56.2314 26.7585 56.1764 26.7717C56.1214 26.7849 56.1413 26.8566 56.1596 26.9065C56.155 27.1099 56.1459 27.3133 56.1459 27.5167C56.1459 38.2524 56.1459 48.9884 56.1459 59.7247C56.1459 59.9282 56.1555 60.1316 56.1601 60.335C56.1525 60.5384 56.1377 60.7418 56.1372 60.9452C56.1372 62.9947 56.1372 65.0442 56.1372 67.094C56.1372 67.6026 56.1499 68.1111 56.1566 68.6196C56.1535 68.7381 56.1479 68.8566 56.1479 68.9756C56.1479 79.5679 56.1479 90.1603 56.1479 100.753C56.1479 100.855 56.1479 100.956 56.152 101.058C56.1622 101.255 56.2732 101.291 56.425 101.202C56.6736 101.057 56.9135 100.897 57.1574 100.745C60.8164 98.4431 64.4751 96.1413 68.1337 93.8393C70.1837 92.5421 72.2342 91.2471 74.2852 89.954C77.2833 88.0663 80.2819 86.1794 83.281 84.2934C83.4247 84.2029 83.579 84.1271 83.66 83.9664Z" fill="#BBEAFF"/>
<path d="M48.91 0.148602C48.9075 0.335237 48.9029 0.521363 48.9029 0.707998C48.9029 38.3225 48.9029 75.9377 48.9029 113.554C48.9029 113.791 48.908 114.028 48.9105 114.265C48.9009 114.297 48.8952 114.33 48.8937 114.363C48.5311 114.251 48.2433 114.007 47.931 113.808C41.3277 109.66 34.7267 105.507 28.1281 101.349C22.5177 97.8167 16.9073 94.2857 11.2968 90.7561C7.66643 88.4714 4.03673 86.1858 0.407708 83.8994C0.336907 83.8547 0.271709 83.7977 0.203964 83.7504C0.198361 83.6741 0.192248 83.5978 0.186646 83.521C0.715871 82.595 1.23847 81.6654 1.77534 80.7439C3.91533 77.0688 6.05719 73.3946 8.20092 69.7212C10.9246 65.0535 13.6482 60.3854 16.3716 55.717C19.4277 50.477 22.4812 45.2365 25.5319 39.9954C28.4862 34.931 31.4405 29.8676 34.3948 24.8053C37.2615 19.8887 40.1266 14.9699 42.9902 10.0489C44.882 6.79932 46.7767 3.55143 48.6742 0.305233C48.7333 0.203524 48.7761 0.0901193 48.8932 0.0341797L48.91 0.148602ZM41.6567 68.6075C41.6608 67.7796 41.6695 66.9522 41.669 66.1243C41.6669 64.1986 41.6625 62.2728 41.6557 60.3468C41.6608 60.211 41.671 60.0757 41.671 59.9399C41.671 49.0422 41.671 38.1447 41.671 27.2473V26.8405C41.4515 26.9498 41.4199 27.109 41.346 27.2351C39.8179 29.8541 38.2899 32.4743 36.7618 35.0956C35.0463 38.0374 33.3301 40.9793 31.6132 43.9214C29.5913 47.3907 27.5697 50.8609 25.5482 54.3323C23.6025 57.6696 21.6559 61.0067 19.7084 64.3434C17.8221 67.5781 15.9374 70.8139 14.0545 74.051C13.5793 74.8707 13.0617 75.6671 12.6481 76.522C12.5841 76.6002 12.5244 76.6818 12.4694 76.7666C11.6406 78.1788 10.817 79.5936 9.98521 81.0033C9.85584 81.2235 9.87978 81.3592 10.1054 81.4976C10.954 82.0203 11.7863 82.5655 12.6369 83.0873C13.1402 83.3949 13.6047 83.7702 14.1625 83.9843C14.2542 84.1369 14.4172 84.203 14.5603 84.2895C16.5386 85.5391 18.5184 86.7862 20.4994 88.0308C27.0997 92.1863 33.7007 96.3402 40.3023 100.493C40.7159 100.752 41.1031 101.06 41.5651 101.24C41.5778 101.276 41.616 101.296 41.6328 101.27C41.6459 101.23 41.6507 101.187 41.6471 101.144C41.6542 100.958 41.6669 100.773 41.6669 100.585C41.6669 90.1396 41.6669 79.6944 41.6669 69.2493C41.6669 69.0642 41.6511 68.8786 41.6425 68.693C41.6552 68.6664 41.6601 68.6368 41.6567 68.6075Z" fill="#00B1FF"/>
<path d="M97.5093 92.6054C97.1461 93.2767 96.6627 93.8676 96.2318 94.4932C93.9152 97.8567 91.5891 101.214 89.2536 104.565C87.7183 106.78 86.1838 108.995 84.65 111.21C83.4451 112.948 82.2397 114.686 81.0335 116.422C76.5277 122.927 72.0221 129.431 67.5166 135.936C63.8591 141.214 60.2 146.492 56.5394 151.768C54.4731 154.749 52.4047 157.728 50.3343 160.705C49.9024 161.324 49.5423 161.996 49.0019 162.536C49.0019 162.282 48.9983 162.028 48.9983 161.773V125.849C48.9983 124.815 48.9996 123.782 49.0024 122.749C50.8439 121.598 52.6849 120.447 54.5254 119.297C60.3878 115.621 66.2495 111.945 72.1105 108.268L80.2149 103.182L95.9455 93.3164C96.4605 92.9935 96.9571 92.64 97.5052 92.373C97.5082 92.4529 97.5088 92.5276 97.5093 92.6054ZM71.7687 117.076C71.7372 116.956 71.6867 117.034 71.6409 117.064C70.5067 117.773 69.3725 118.482 68.2384 119.191C64.3625 121.621 60.4857 124.049 56.6081 126.476C56.3484 126.638 56.2378 126.806 56.2383 127.118C56.248 131.084 56.2445 135.047 56.2485 139.011C56.2485 139.113 56.1757 139.249 56.3265 139.317C56.4426 139.257 56.4925 139.146 56.5597 139.05C58.9239 135.642 61.2881 132.235 63.6526 128.828C65.7094 125.862 67.7653 122.896 69.8204 119.928C70.4734 118.982 71.1178 118.027 71.7687 117.076Z" fill="#00B1FF"/>
<path d="M49.0045 122.749C49.0045 123.783 49.0032 124.816 49.0005 125.849V161.774C49.0005 162.028 49.0005 162.282 49.004 162.537C48.8278 162.501 48.7906 162.333 48.7086 162.213C46.6494 159.248 44.593 156.28 42.5392 153.311C38.9472 148.129 35.3547 142.948 31.7617 137.767C27.9197 132.222 24.0788 126.677 20.2389 121.131C17.7396 117.522 15.2389 113.914 12.7365 110.307C8.67931 104.458 4.6214 98.6098 0.56282 92.7626C0.476738 92.6385 0.398297 92.5084 0.298462 92.3558C0.520034 92.2871 0.637696 92.427 0.768602 92.5084C2.99756 93.9018 5.22568 95.2967 7.45294 96.6931C12.5696 99.901 17.6836 103.11 22.7949 106.32C28.369 109.818 33.9434 113.315 39.5182 116.812C42.6212 118.759 45.7236 120.707 48.8252 122.656C48.8828 122.689 48.9449 122.717 49.0045 122.749ZM26.3889 117.11C26.3584 117.046 26.3166 117.008 26.2412 117.045L26.2957 117.108C26.3278 117.283 26.4485 117.406 26.5458 117.544C28.0219 119.676 29.4991 121.808 30.9772 123.939C34.2392 128.649 37.5025 133.357 40.7671 138.064C41.0549 138.478 41.2969 138.929 41.6667 139.285L41.7105 139.353L41.741 139.284C41.7492 139.182 41.7655 139.08 41.7655 138.978C41.7655 135.018 41.7624 131.057 41.7742 127.096C41.7742 126.773 41.6366 126.623 41.385 126.465C37.0045 123.725 32.6271 120.982 28.2527 118.236C27.6379 117.849 27.0496 117.418 26.3874 117.11H26.3889Z" fill="#BBEAFF"/>
<path d="M83.6598 83.9668C82.3263 83.2277 80.993 82.4884 79.6598 81.749C78.4034 81.0472 77.1483 80.3415 75.8946 79.6319C74.4032 78.7922 72.9122 77.9527 71.4214 77.1136C70.1952 76.4251 68.9682 75.738 67.7403 75.0525C65.9382 74.0405 64.1367 73.0275 62.336 72.0135C61.1543 71.3493 59.9719 70.6865 58.7888 70.0251C58.0356 69.6026 57.2824 69.1789 56.5293 68.7537C56.4121 68.6881 56.3011 68.6012 56.1559 68.6113C56.1493 68.1028 56.137 67.5942 56.1365 67.0857C56.1345 65.0363 56.1345 62.9867 56.1365 60.9369C56.1365 60.7335 56.1518 60.5301 56.16 60.3267C57.2133 60.9079 58.2687 61.4841 59.318 62.0705C60.7819 62.8885 62.2438 63.7108 63.7036 64.5374C65.2245 65.3938 66.7452 66.2503 68.2654 67.1071C69.4619 67.7793 70.6594 68.445 71.8585 69.1173C73.3804 69.9717 74.901 70.8281 76.4203 71.6865C77.8828 72.5083 79.3464 73.3282 80.811 74.1463C82.1995 74.9261 83.5873 75.7075 84.9745 76.4907C85.0412 76.5283 85.0942 76.6265 85.1823 76.5242C85.5796 76.9489 85.7895 77.4905 86.0849 77.9776C86.6702 78.9439 87.2213 79.9325 87.7862 80.9114C87.9863 81.2577 87.9853 81.3259 87.6716 81.5263C86.4192 82.3253 85.1628 83.118 83.9023 83.9042C83.8366 83.9515 83.7418 83.949 83.6598 83.9668Z" fill="#00B1FF"/>
<path d="M41.5373 68.6878C40.763 68.9975 40.0749 69.4674 39.3506 69.8686C37.2158 71.051 35.0928 72.2537 32.9652 73.4493C30.395 74.8935 27.8248 76.3383 25.2545 77.7836C22.9644 79.0695 20.6737 80.3544 18.3822 81.6383C17.1109 82.3503 15.8402 83.0641 14.5702 83.7798C14.4372 83.8541 14.2982 83.9161 14.1627 83.9832C13.6024 83.7696 13.1404 83.3943 12.6372 83.0867C11.7875 82.5669 10.9563 82.0187 10.1056 81.497C9.87999 81.3576 9.85605 81.2229 9.98543 81.0027C10.8172 79.593 11.6409 78.1782 12.4696 76.766C12.5246 76.6813 12.5843 76.5996 12.6484 76.5214C13.0126 76.4705 13.2988 76.2458 13.6049 76.0749C16.2516 74.5961 18.8953 73.1123 21.5362 71.6236C24.6219 69.8885 27.7069 68.1528 30.7913 66.4167C33.1099 65.1145 35.4295 63.8141 37.7502 62.5156C38.976 61.8281 40.2017 61.14 41.4272 60.4515C41.5006 60.4108 41.58 60.3808 41.6564 60.3462C41.6609 62.2719 41.6653 64.1977 41.6697 66.1237C41.6697 66.9516 41.6615 67.779 41.6575 68.6069L41.5373 68.6878Z" fill="#BBEAFF"/>
</g>
<defs>
<clipPath id="clip0_1026_142">
<rect width="97.7972" height="162.536" fill="white"/>
</clipPath>
</defs>
</svg>