<svg width="190" height="51" viewBox="0 0 190 51" fill="none" xmlns="http://www.w3.org/2000/svg">
<rect x="0.0195312" y="0.0830078" width="50.6322" height="50.6322" rx="25.3161" fill="url(#paint0_linear_319_974)"/>
<path d="M12.5784 35.9991V26.7659L17.1418 31.4356L12.5784 35.9991Z" fill="white"/>
<path d="M38.0925 35.9991V26.7659L33.5291 31.4356L38.0925 35.9991Z" fill="white"/>
<path d="M26.9451 36.924V37.5931C26.9453 37.6014 26.9436 37.6097 26.9401 37.6173C26.9366 37.6249 26.9315 37.6315 26.9251 37.6369C26.9188 37.6423 26.9113 37.6461 26.9032 37.6483C26.8951 37.6504 26.8867 37.6506 26.8785 37.6491C26.4173 37.5667 25.9499 37.5236 25.4815 37.5204C25.0125 37.5236 24.5447 37.5667 24.083 37.6491C24.0748 37.6507 24.0665 37.6504 24.0585 37.6483C24.0505 37.6462 24.043 37.6423 24.0368 37.6369C24.0305 37.6315 24.0255 37.6248 24.0223 37.6171C24.019 37.6095 24.0175 37.6013 24.0179 37.5931V36.9271C24.0179 36.9198 24.0193 36.9125 24.0222 36.9057C24.0251 36.8989 24.0292 36.8928 24.0345 36.8877C24.5855 36.3746 25.2348 35.182 25.4315 34.8051C25.4362 34.7958 25.4434 34.7881 25.4522 34.7827C25.461 34.7773 25.4712 34.7744 25.4815 34.7744C25.4919 34.7744 25.502 34.7773 25.5108 34.7827C25.5196 34.7881 25.5267 34.7958 25.5314 34.8051C25.7282 35.182 26.376 36.3746 26.9285 36.8877C26.9384 36.8973 26.9443 36.9103 26.9451 36.924Z" fill="white"/>
<path fill-rule="evenodd" clip-rule="evenodd" d="M12.5784 13.1475V24.3972L23.9061 35.5363L23.8298 35.4541C23.9914 35.1767 24.3308 34.5928 24.396 34.4761C24.4029 34.4638 24.411 34.4481 24.4204 34.4298C24.5223 34.2326 24.7828 33.7279 25.4528 33.7131C26.1849 33.6969 26.4808 34.3014 26.5436 34.4413C26.5906 34.546 26.9081 35.0957 26.9929 35.2192L30.6909 31.4725L17.1418 17.8172L12.5784 13.1475Z" fill="white"/>
<path fill-rule="evenodd" clip-rule="evenodd" d="M38.0921 14.9604V15.9441L27.9289 25.821L27.4507 25.302L38.0921 14.9604ZM28.2761 26.1978L38.0921 16.6584V17.6433L28.7549 26.7175L28.2761 26.1978ZM29.1021 27.0943L29.5807 27.6138L38.0921 19.3422V18.3576L29.1021 27.0943ZM30.4068 28.5104L29.9279 27.9907L38.0921 20.0565V21.0415L30.4068 28.5104ZM30.754 28.8872L31.2317 29.4057L38.0921 22.7385V21.7558L30.754 28.8872ZM32.0575 30.302L31.5789 29.7826L38.0921 23.4528V24.3962L33.8933 28.518L32.0575 30.302ZM38.0921 14.2461L27.1035 24.9251L26.6162 24.3962L33.5287 17.8163L38.0921 13.1465V14.2461Z" fill="white"/>
<path d="M85.8695 16.1586V35.488H83.3276V21.0748L76.9031 35.488H75.1154L68.6629 21.0468V35.488H66.121V16.1586H68.8584L76.0092 32.1361L83.16 16.1586H85.8695ZM96.8562 35.7394C95.4223 35.7394 94.1188 35.4135 92.9456 34.7618C91.791 34.11 90.8786 33.1882 90.2082 31.9964C89.5564 30.786 89.2305 29.3894 89.2305 27.8065C89.2305 26.2423 89.5657 24.8643 90.2361 23.6725C90.9251 22.4621 91.8562 21.5403 93.0294 20.9072C94.2026 20.2554 95.5154 19.9295 96.9679 19.9295C98.4204 19.9295 99.7332 20.2554 100.906 20.9072C102.08 21.5403 103.001 22.4528 103.672 23.6446C104.361 24.8364 104.705 26.2237 104.705 27.8065C104.705 29.3894 104.351 30.786 103.644 31.9964C102.955 33.1882 102.014 34.11 100.823 34.7618C99.6308 35.4135 98.3087 35.7394 96.8562 35.7394ZM96.8562 33.5048C97.7686 33.5048 98.6252 33.2907 99.426 32.8624C100.227 32.4341 100.869 31.7916 101.353 30.935C101.856 30.0784 102.108 29.0356 102.108 27.8065C102.108 26.5775 101.865 25.5347 101.381 24.6781C100.897 23.8215 100.264 23.1883 99.4818 22.7787C98.6997 22.3504 97.8524 22.1362 96.94 22.1362C96.0089 22.1362 95.1523 22.3504 94.3702 22.7787C93.6067 23.1883 92.9921 23.8215 92.5266 24.6781C92.0611 25.5347 91.8283 26.5775 91.8283 27.8065C91.8283 29.0542 92.0517 30.1063 92.4987 30.9629C92.9642 31.8195 93.5787 32.462 94.3422 32.8903C95.1057 33.3 95.9437 33.5048 96.8562 33.5048ZM110.589 14.8178V35.488H108.047V14.8178H110.589ZM128.888 27.2479C128.888 27.7321 128.86 28.2442 128.804 28.7842H116.569C116.663 30.2926 117.175 31.475 118.106 32.3316C119.055 33.1696 120.201 33.5886 121.541 33.5886C122.64 33.5886 123.553 33.3372 124.279 32.8344C125.024 32.313 125.545 31.624 125.843 30.7674H128.581C128.171 32.2385 127.351 33.4396 126.122 34.3707C124.893 35.2832 123.366 35.7394 121.541 35.7394C120.089 35.7394 118.785 35.4135 117.631 34.7618C116.495 34.11 115.601 33.1882 114.949 31.9964C114.298 30.786 113.972 29.3894 113.972 27.8065C113.972 26.2237 114.288 24.8364 114.921 23.6446C115.555 22.4528 116.439 21.5403 117.575 20.9072C118.73 20.2554 120.052 19.9295 121.541 19.9295C122.994 19.9295 124.279 20.2461 125.396 20.8792C126.513 21.5124 127.37 22.3876 127.966 23.5049C128.581 24.6036 128.888 25.8513 128.888 27.2479ZM126.262 26.7172C126.262 25.7488 126.048 24.9202 125.62 24.2312C125.191 23.5235 124.605 22.9928 123.86 22.639C123.134 22.2666 122.324 22.0803 121.43 22.0803C120.145 22.0803 119.046 22.49 118.134 23.3094C117.24 24.1287 116.728 25.2647 116.597 26.7172H126.262ZM131.293 27.8065C131.293 26.2237 131.61 24.8457 132.243 23.6725C132.876 22.4807 133.751 21.5589 134.869 20.9072C136.005 20.2554 137.299 19.9295 138.751 19.9295C140.632 19.9295 142.178 20.3858 143.388 21.2982C144.617 22.2107 145.427 23.477 145.818 25.0971H143.081C142.82 24.166 142.308 23.4304 141.545 22.8904C140.8 22.3504 139.869 22.0803 138.751 22.0803C137.299 22.0803 136.126 22.5831 135.232 23.5887C134.338 24.5757 133.891 25.9816 133.891 27.8065C133.891 29.6501 134.338 31.0747 135.232 32.0802C136.126 33.0858 137.299 33.5886 138.751 33.5886C139.869 33.5886 140.8 33.3279 141.545 32.8065C142.289 32.2851 142.802 31.5402 143.081 30.5719H145.818C145.409 32.1361 144.589 33.3931 143.36 34.3428C142.131 35.2739 140.595 35.7394 138.751 35.7394C137.299 35.7394 136.005 35.4135 134.869 34.7618C133.751 34.11 132.876 33.1882 132.243 31.9964C131.61 30.8047 131.293 29.408 131.293 27.8065ZM162.785 20.1809V35.488H160.243V33.2255C159.759 34.0076 159.079 34.6221 158.204 35.069C157.348 35.4973 156.398 35.7115 155.355 35.7115C154.163 35.7115 153.093 35.4694 152.143 34.9852C151.193 34.4825 150.439 33.7376 149.88 32.7506C149.34 31.7637 149.07 30.5626 149.07 29.1473V20.1809H151.584V28.8121C151.584 30.3205 151.966 31.4843 152.729 32.3037C153.493 33.1044 154.536 33.5048 155.858 33.5048C157.217 33.5048 158.288 33.0858 159.07 32.2478C159.852 31.4099 160.243 30.1901 160.243 28.5887V20.1809H162.785ZM169.619 14.8178V35.488H167.077V14.8178H169.619ZM187.917 27.2479C187.917 27.7321 187.889 28.2442 187.834 28.7842H175.599C175.692 30.2926 176.204 31.475 177.135 32.3316C178.085 33.1696 179.23 33.5886 180.571 33.5886C181.67 33.5886 182.582 33.3372 183.309 32.8344C184.053 32.313 184.575 31.624 184.873 30.7674H187.61C187.2 32.2385 186.381 33.4396 185.152 34.3707C183.923 35.2832 182.396 35.7394 180.571 35.7394C179.119 35.7394 177.815 35.4135 176.661 34.7618C175.525 34.11 174.631 33.1882 173.979 31.9964C173.327 30.786 173.001 29.3894 173.001 27.8065C173.001 26.2237 173.318 24.8364 173.951 23.6446C174.584 22.4528 175.469 21.5403 176.605 20.9072C177.759 20.2554 179.081 19.9295 180.571 19.9295C182.024 19.9295 183.309 20.2461 184.426 20.8792C185.543 21.5124 186.4 22.3876 186.996 23.5049C187.61 24.6036 187.917 25.8513 187.917 27.2479ZM185.292 26.7172C185.292 25.7488 185.078 24.9202 184.649 24.2312C184.221 23.5235 183.634 22.9928 182.89 22.639C182.163 22.2666 181.353 22.0803 180.459 22.0803C179.174 22.0803 178.076 22.49 177.163 23.3094C176.269 24.1287 175.757 25.2647 175.627 26.7172H185.292Z" fill="white"/>
<defs>
<linearGradient id="paint0_linear_319_974" x1="44.9493" y1="43.4829" x2="4.66432" y2="-1.95851" gradientUnits="userSpaceOnUse">
<stop stop-color="#FD4E05"/>
<stop offset="1" stop-color="#FFB222"/>
</linearGradient>
</defs>
</svg>