<svg width="54" height="55" viewBox="0 0 54 55" fill="none" xmlns="http://www.w3.org/2000/svg">
<rect y="0.526367" width="53.7456" height="53.7456" rx="26.8728" fill="url(#paint0_linear_318_947)"/>
<path d="M12.3909 39.4324V28.9514L17.571 34.2523L12.3909 39.4324Z" fill="white"/>
<path d="M41.3533 39.4322V28.9512L36.1731 34.252L41.3533 39.4322Z" fill="white"/>
<path d="M28.6999 40.4829V41.2423C28.7 41.2517 28.6981 41.2612 28.6941 41.2698C28.6902 41.2784 28.6844 41.286 28.6772 41.2921C28.67 41.2982 28.6614 41.3025 28.6523 41.305C28.6431 41.3073 28.6335 41.3076 28.6242 41.3059C28.1007 41.2123 27.5702 41.1634 27.0384 41.1598C26.506 41.1634 25.975 41.2123 25.4509 41.3059C25.4417 41.3077 25.4322 41.3074 25.4231 41.305C25.414 41.3026 25.4056 41.2982 25.3985 41.2921C25.3913 41.286 25.3857 41.2783 25.382 41.2696C25.3783 41.261 25.3766 41.2517 25.377 41.2423V40.4863C25.377 40.478 25.3787 40.4697 25.3819 40.462C25.3852 40.4544 25.3899 40.4474 25.3959 40.4416C26.0213 39.8592 26.7584 38.5054 26.9817 38.0776C26.987 38.067 26.9952 38.0583 27.0052 38.0521C27.0151 38.046 27.0267 38.0427 27.0384 38.0427C27.0502 38.0427 27.0617 38.046 27.0717 38.0521C27.0817 38.0583 27.0898 38.067 27.0951 38.0776C27.3185 38.5054 28.0538 39.8592 28.6809 40.4416C28.6922 40.4525 28.699 40.4672 28.6999 40.4829Z" fill="white"/>
<path fill-rule="evenodd" clip-rule="evenodd" d="M12.3914 13.4919V26.262L25.2435 38.9001L25.1632 38.8137C25.3466 38.4988 25.7319 37.8359 25.8059 37.7035C25.8138 37.6895 25.8229 37.6717 25.8337 37.6509C25.9493 37.427 26.2449 36.8542 27.0055 36.8374C27.8366 36.819 28.1725 37.5052 28.2437 37.664C28.297 37.7828 28.6572 38.4062 28.7536 38.5468L32.9517 34.2935L17.5715 18.7928L12.3914 13.4919Z" fill="white"/>
<path fill-rule="evenodd" clip-rule="evenodd" d="M41.3542 15.5507V16.6678L29.8177 27.8793L29.2746 27.2899L41.3542 15.5507ZM30.2118 28.3071L41.3542 17.4786V18.5973L30.7556 28.8973L30.2118 28.3071ZM31.1497 29.325L31.6927 29.9144L41.3542 20.5252V19.4081L31.1497 29.325ZM32.6305 30.9322L32.0869 30.3422L41.3542 21.336V22.4543L32.6305 30.9322ZM33.0246 31.36L33.5669 31.9486L41.3542 24.3807V23.2651L33.0246 31.36ZM34.5047 32.9664L33.9611 32.3764L41.3542 25.1915V26.2618L36.4532 31.0729L34.5047 32.9664ZM41.3542 14.7398L28.8805 26.8621L28.3274 26.2618L36.174 18.7926L41.3542 13.4917V14.7398Z" fill="white"/>
<defs>
<linearGradient id="paint0_linear_318_947" x1="47.6925" y1="46.595" x2="4.9304" y2="-1.64069" gradientUnits="userSpaceOnUse">
<stop stop-color="#FD4E05"/>
<stop offset="1" stop-color="#FFB222"/>
</linearGradient>
</defs>
</svg>