<?xml version="1.0" encoding="UTF-8"?>
<!-- Generator: Adobe Illustrator 25.2.1, SVG Export Plug-In . SVG Version: 6.00 Build 0)  -->
<svg version="1.1" id="Ebene_1" xmlns="http://www.w3.org/2000/svg" xmlns:xlink="http://www.w3.org/1999/xlink" x="0px" y="0px" viewBox="0 0 676.9 308.7" style="enable-background:new 0 0 676.9 308.7;" xml:space="preserve">
<style type="text/css">
	.st0{enable-background:new    ;}
	.st1{fill:#002BA2;}
</style>
<g id="Ebene_2_1_">
	<g id="Ebene_1-2">
		<g class="st0">
			<path class="st1" d="M388.1,237.2v-36.9L369,219.7l-19.3-19.3v36.9h-7.3v-54.2l26.4,26.4l26.5-26.4v54.2H388.1z"/>
		</g>
		<g class="st0">
			<path class="st1" d="M427.6,238.5c-11,0-20-9-20.1-20.1v-34.2h7.2v34.2c0,7.1,5.8,12.9,12.9,12.9c7.2,0,13-5.8,12.9-12.9v-34.2     h7.2v34.2C447.7,229.5,438.7,238.5,427.6,238.5z"/>
		</g>
		<g class="st0">
			<path class="st1" d="M459.9,236.7V183l34.7,36.4v-35.1h7.1v53.6L467,201.6v35.1H459.9z"/>
		</g>
		<g class="st0">
			<path class="st1" d="M514,237.2v-53h7.2v53H514z"/>
		</g>
		<g class="st0">
			<path class="st1" d="M574.5,233c-4.5,3.6-10.1,5.6-16.1,5.6c-15,0-27-12.5-27-27.8c0-15.2,12.1-27.6,27-27.6c6,0,11.6,2,16.1,5.6     l-5.2,5.4c-3-2.2-6.9-3.4-10.9-3.4c-10.9,0-19.7,9.1-19.7,20c0,11.2,8.8,20.2,19.7,20.2c4,0,7.9-1.2,10.9-3.5L574.5,233z"/>
		</g>
		<g class="st0">
			<path class="st1" d="M618.1,237.2v-22.9h-28.1v22.9h-7.3v-52.9h7.3V207h28.1v-22.8h7.2v52.9H618.1z"/>
		</g>
		<path class="st1" d="M391.4,137.4c-5.8,12.5-22,16.5-34.1,11.9c-6.2-2.3-11.3-6.9-14.1-12.9c-1.3-3.1-2.4-6.2-2.2-9.5h16.5    c0,3.9,3,7.2,6.5,8.5c5.1,2,11-0.1,13.6-4.9c1.3-2.6,1.1-5.8-0.7-8.2c-2.7-4.3-8.1-4.8-12.7-5.2c-5.5-0.6-10.7-2.5-15.3-5.6    c-9-6.4-10.7-19.4-6.2-28.8c5.8-12.4,22-16.5,34.1-11.9c6.2,2.2,11.3,6.9,14.1,12.9c1.5,2.9,2.2,6.2,2.1,9.5h-16.4    c-0.1-3.9-2.8-7.4-6.6-8.5c-3.8-1.6-8.2-0.8-11.2,1.9c-3.3,2.8-4,7.6-1.6,11.2c2.7,4.2,8.1,4.8,12.6,5.1    c5.5,0.5,10.8,2.5,15.4,5.6C394.1,114.9,395.8,128,391.4,137.4z"/>
		<path class="st1" d="M460.9,84.8h-21.4v64.6H425V84.8h-21.3V70.6h57.1V84.8z"/>
		<polygon class="st1" points="500.8,70.5 462.1,149.5 477.3,149.5 500.8,101.6 524.3,149.5 539.5,149.5   "/>
		<path class="st1" d="M610.5,149.4h-17.7l-14-20.5l-4.4-6.2l-0.1-0.2h-10.6v27h-14.3V70.2h29c14.5,0,26.2,11.8,26.2,26.2    c0,10-5.7,19-14.6,23.4h0.1L610.5,149.4z M590,96.4c0-6.1-4.7-11.2-10.8-11.6h-15.4v23.3h15.4C585.3,107.6,590,102.5,590,96.4z"/>
		<path class="st1" d="M676.9,84.8h-21.4v64.6H641V84.8h-21.3V70.6h57.1L676.9,84.8z"/>
		<path class="st1" d="M100.2,53.1C44.8,53.1,0,97.9,0,153.3s44.8,100.2,100.1,100.2s100.2-44.8,100.2-100.1c0,0,0,0,0,0    C200.3,97.9,155.5,53.1,100.2,53.1z M138.8,198.8l-38.7-83.3l-38.7,83.3H44.6l55.5-119.5l55.5,119.5H138.8z"/>
		<rect x="270.2" class="st1" width="7.2" height="308.7"/>
	</g>
</g>
</svg>